<svg xmlns="http://www.w3.org/2000/svg" viewBox="0 0 806 862" width="806" height="862" role="img">
<rect width="806" height="862" fill="#fbfaf7"/>
<defs><marker id="seta" viewBox="0 0 10 10" refX="8" refY="5" markerWidth="5" markerHeight="5" orient="auto-start-reverse"><path d="M0,0 L10,5 L0,10 z" fill="context-stroke"/></marker></defs>
<text x="130.0" y="26.4" text-anchor="start" font-family="ui-sans-serif,system-ui,Helvetica,Arial,sans-serif" font-size="15" font-weight="700" fill="#243244">Serpenteados horizontais (mesmas zonas, raias giradas)</text>
<rect x="60.0" y="74.0" width="685.9" height="196.0" fill="#eef1f4"/>
<rect x="130.0" y="270.0" width="545.9" height="490.0" fill="#f6f4ef" stroke="#1c2733" stroke-width="2.2"/>
<line x1="60.0" y1="74.0" x2="745.9" y2="74.0" stroke="#1c2733" stroke-width="3"/>
<text x="402.9" y="57.2" text-anchor="middle" font-family="ui-sans-serif,system-ui,Helvetica,Arial,sans-serif" font-size="11" font-weight="700" fill="#5c6c80">FACHADA SUL DO HALL 2</text>
<line x1="274.3" y1="74.0" x2="357.4" y2="74.0" stroke="#2a78d6" stroke-width="6"/>
<text x="315.9" y="96.4" text-anchor="middle" font-family="ui-sans-serif,system-ui,Helvetica,Arial,sans-serif" font-size="11" font-weight="700" fill="#2a78d6">S4 · A</text>
<line x1="361.4" y1="74.0" x2="444.4" y2="74.0" stroke="#e08a00" stroke-width="6"/>
<text x="402.9" y="96.4" text-anchor="middle" font-family="ui-sans-serif,system-ui,Helvetica,Arial,sans-serif" font-size="11" font-weight="700" fill="#e08a00">S5 · B</text>
<line x1="448.5" y1="74.0" x2="531.5" y2="74.0" stroke="#c2185b" stroke-width="6"/>
<text x="490.0" y="96.4" text-anchor="middle" font-family="ui-sans-serif,system-ui,Helvetica,Arial,sans-serif" font-size="11" font-weight="700" fill="#c2185b">S6 · C</text>
<line x1="192.4" y1="74.0" x2="209.2" y2="74.0" stroke="#b26a12" stroke-width="6"/>
<text x="200.8" y="96.4" text-anchor="middle" font-family="ui-sans-serif,system-ui,Helvetica,Arial,sans-serif" font-size="9.5" font-weight="400" fill="#b26a12">S2 saída</text>
<line x1="596.6" y1="74.0" x2="613.4" y2="74.0" stroke="#b26a12" stroke-width="6"/>
<text x="605.0" y="96.4" text-anchor="middle" font-family="ui-sans-serif,system-ui,Helvetica,Arial,sans-serif" font-size="9.5" font-weight="400" fill="#b26a12">S8 saída</text>
<text x="67.0" y="172.0" text-anchor="middle" font-family="ui-sans-serif,system-ui,Helvetica,Arial,sans-serif" font-size="10" font-weight="400" fill="#5c6c80" transform="rotate(-90 67.0 172.0)">apron pavimentado · 14 m</text>
<rect x="219.2" y="270.0" width="58.8" height="332.5" fill="#2a78d6" fill-opacity=".13" stroke="#2a78d6" stroke-width="1.4"/>
<line x1="236.0" y1="582.9" x2="278.0" y2="582.9" stroke="#2a78d6" stroke-width="1" stroke-opacity=".6"/>
<line x1="219.2" y1="563.4" x2="261.2" y2="563.4" stroke="#2a78d6" stroke-width="1" stroke-opacity=".6"/>
<line x1="236.0" y1="543.8" x2="278.0" y2="543.8" stroke="#2a78d6" stroke-width="1" stroke-opacity=".6"/>
<line x1="219.2" y1="524.3" x2="261.2" y2="524.3" stroke="#2a78d6" stroke-width="1" stroke-opacity=".6"/>
<line x1="236.0" y1="504.7" x2="278.0" y2="504.7" stroke="#2a78d6" stroke-width="1" stroke-opacity=".6"/>
<line x1="219.2" y1="485.1" x2="261.2" y2="485.1" stroke="#2a78d6" stroke-width="1" stroke-opacity=".6"/>
<line x1="236.0" y1="465.6" x2="278.0" y2="465.6" stroke="#2a78d6" stroke-width="1" stroke-opacity=".6"/>
<line x1="219.2" y1="446.0" x2="261.2" y2="446.0" stroke="#2a78d6" stroke-width="1" stroke-opacity=".6"/>
<line x1="236.0" y1="426.5" x2="278.0" y2="426.5" stroke="#2a78d6" stroke-width="1" stroke-opacity=".6"/>
<line x1="219.2" y1="406.9" x2="261.2" y2="406.9" stroke="#2a78d6" stroke-width="1" stroke-opacity=".6"/>
<line x1="236.0" y1="387.4" x2="278.0" y2="387.4" stroke="#2a78d6" stroke-width="1" stroke-opacity=".6"/>
<line x1="219.2" y1="367.8" x2="261.2" y2="367.8" stroke="#2a78d6" stroke-width="1" stroke-opacity=".6"/>
<line x1="236.0" y1="348.2" x2="278.0" y2="348.2" stroke="#2a78d6" stroke-width="1" stroke-opacity=".6"/>
<line x1="219.2" y1="328.7" x2="261.2" y2="328.7" stroke="#2a78d6" stroke-width="1" stroke-opacity=".6"/>
<line x1="236.0" y1="309.1" x2="278.0" y2="309.1" stroke="#2a78d6" stroke-width="1" stroke-opacity=".6"/>
<line x1="219.2" y1="289.6" x2="261.2" y2="289.6" stroke="#2a78d6" stroke-width="1" stroke-opacity=".6"/>
<text x="248.6" y="251.8" text-anchor="middle" font-family="ui-sans-serif,system-ui,Helvetica,Arial,sans-serif" font-size="11" font-weight="700" fill="#2a78d6" paint-order="stroke" stroke="#eef1f4" stroke-width="3.5" stroke-linejoin="round">A · 17 × 4.2 m</text>
<line x1="278.0" y1="270.0" x2="315.9" y2="79.6" stroke="#2a78d6" stroke-width="2" marker-end="url(#seta)"/>
<rect x="316.2" y="270.0" width="176.4" height="332.5" fill="#e08a00" fill-opacity=".13" stroke="#e08a00" stroke-width="1.4"/>
<line x1="333.0" y1="582.9" x2="492.6" y2="582.9" stroke="#e08a00" stroke-width="1" stroke-opacity=".6"/>
<line x1="316.2" y1="563.4" x2="475.8" y2="563.4" stroke="#e08a00" stroke-width="1" stroke-opacity=".6"/>
<line x1="333.0" y1="543.8" x2="492.6" y2="543.8" stroke="#e08a00" stroke-width="1" stroke-opacity=".6"/>
<line x1="316.2" y1="524.3" x2="475.8" y2="524.3" stroke="#e08a00" stroke-width="1" stroke-opacity=".6"/>
<line x1="333.0" y1="504.7" x2="492.6" y2="504.7" stroke="#e08a00" stroke-width="1" stroke-opacity=".6"/>
<line x1="316.2" y1="485.1" x2="475.8" y2="485.1" stroke="#e08a00" stroke-width="1" stroke-opacity=".6"/>
<line x1="333.0" y1="465.6" x2="492.6" y2="465.6" stroke="#e08a00" stroke-width="1" stroke-opacity=".6"/>
<line x1="316.2" y1="446.0" x2="475.8" y2="446.0" stroke="#e08a00" stroke-width="1" stroke-opacity=".6"/>
<line x1="333.0" y1="426.5" x2="492.6" y2="426.5" stroke="#e08a00" stroke-width="1" stroke-opacity=".6"/>
<line x1="316.2" y1="406.9" x2="475.8" y2="406.9" stroke="#e08a00" stroke-width="1" stroke-opacity=".6"/>
<line x1="333.0" y1="387.4" x2="492.6" y2="387.4" stroke="#e08a00" stroke-width="1" stroke-opacity=".6"/>
<line x1="316.2" y1="367.8" x2="475.8" y2="367.8" stroke="#e08a00" stroke-width="1" stroke-opacity=".6"/>
<line x1="333.0" y1="348.2" x2="492.6" y2="348.2" stroke="#e08a00" stroke-width="1" stroke-opacity=".6"/>
<line x1="316.2" y1="328.7" x2="475.8" y2="328.7" stroke="#e08a00" stroke-width="1" stroke-opacity=".6"/>
<line x1="333.0" y1="309.1" x2="492.6" y2="309.1" stroke="#e08a00" stroke-width="1" stroke-opacity=".6"/>
<line x1="316.2" y1="289.6" x2="475.8" y2="289.6" stroke="#e08a00" stroke-width="1" stroke-opacity=".6"/>
<text x="404.4" y="251.8" text-anchor="middle" font-family="ui-sans-serif,system-ui,Helvetica,Arial,sans-serif" font-size="11" font-weight="700" fill="#e08a00" paint-order="stroke" stroke="#eef1f4" stroke-width="3.5" stroke-linejoin="round">B · 17 × 12.6 m</text>
<line x1="402.9" y1="270.0" x2="402.9" y2="79.6" stroke="#e08a00" stroke-width="2" marker-end="url(#seta)"/>
<rect x="527.6" y="270.0" width="58.8" height="332.5" fill="#c2185b" fill-opacity=".13" stroke="#c2185b" stroke-width="1.4"/>
<line x1="544.4" y1="582.9" x2="586.4" y2="582.9" stroke="#c2185b" stroke-width="1" stroke-opacity=".6"/>
<line x1="527.6" y1="563.4" x2="569.6" y2="563.4" stroke="#c2185b" stroke-width="1" stroke-opacity=".6"/>
<line x1="544.4" y1="543.8" x2="586.4" y2="543.8" stroke="#c2185b" stroke-width="1" stroke-opacity=".6"/>
<line x1="527.6" y1="524.3" x2="569.6" y2="524.3" stroke="#c2185b" stroke-width="1" stroke-opacity=".6"/>
<line x1="544.4" y1="504.7" x2="586.4" y2="504.7" stroke="#c2185b" stroke-width="1" stroke-opacity=".6"/>
<line x1="527.6" y1="485.1" x2="569.6" y2="485.1" stroke="#c2185b" stroke-width="1" stroke-opacity=".6"/>
<line x1="544.4" y1="465.6" x2="586.4" y2="465.6" stroke="#c2185b" stroke-width="1" stroke-opacity=".6"/>
<line x1="527.6" y1="446.0" x2="569.6" y2="446.0" stroke="#c2185b" stroke-width="1" stroke-opacity=".6"/>
<line x1="544.4" y1="426.5" x2="586.4" y2="426.5" stroke="#c2185b" stroke-width="1" stroke-opacity=".6"/>
<line x1="527.6" y1="406.9" x2="569.6" y2="406.9" stroke="#c2185b" stroke-width="1" stroke-opacity=".6"/>
<line x1="544.4" y1="387.4" x2="586.4" y2="387.4" stroke="#c2185b" stroke-width="1" stroke-opacity=".6"/>
<line x1="527.6" y1="367.8" x2="569.6" y2="367.8" stroke="#c2185b" stroke-width="1" stroke-opacity=".6"/>
<line x1="544.4" y1="348.2" x2="586.4" y2="348.2" stroke="#c2185b" stroke-width="1" stroke-opacity=".6"/>
<line x1="527.6" y1="328.7" x2="569.6" y2="328.7" stroke="#c2185b" stroke-width="1" stroke-opacity=".6"/>
<line x1="544.4" y1="309.1" x2="586.4" y2="309.1" stroke="#c2185b" stroke-width="1" stroke-opacity=".6"/>
<line x1="527.6" y1="289.6" x2="569.6" y2="289.6" stroke="#c2185b" stroke-width="1" stroke-opacity=".6"/>
<text x="557.0" y="251.8" text-anchor="middle" font-family="ui-sans-serif,system-ui,Helvetica,Arial,sans-serif" font-size="11" font-weight="700" fill="#c2185b" paint-order="stroke" stroke="#eef1f4" stroke-width="3.5" stroke-linejoin="round">C · 17 × 4.2 m</text>
<line x1="527.6" y1="270.0" x2="490.0" y2="79.6" stroke="#c2185b" stroke-width="2" marker-end="url(#seta)"/>
<rect x="130.0" y="270.0" width="89.6" height="332.5" fill="#8a919b" fill-opacity=".16" stroke="#8a919b" stroke-width="1.2" stroke-dasharray="4 3"/>
<text x="174.8" y="436.2" text-anchor="middle" font-family="ui-sans-serif,system-ui,Helvetica,Arial,sans-serif" font-size="10" font-weight="400" fill="#5c6c80" transform="rotate(-90 174.8 436.2)">baia oeste</text>
<rect x="586.3" y="270.0" width="89.6" height="332.5" fill="#8a919b" fill-opacity=".16" stroke="#8a919b" stroke-width="1.2" stroke-dasharray="4 3"/>
<text x="631.1" y="436.2" text-anchor="middle" font-family="ui-sans-serif,system-ui,Helvetica,Arial,sans-serif" font-size="10" font-weight="400" fill="#5c6c80" transform="rotate(-90 631.1 436.2)">baia leste</text>
<rect x="146.0" y="619.3" width="513.8" height="42.0" fill="none" stroke="#5c6c80" stroke-width="1.2"/>
<text x="402.9" y="645.9" text-anchor="middle" font-family="ui-sans-serif,system-ui,Helvetica,Arial,sans-serif" font-size="10" font-weight="600" fill="#5c6c80">CORREDOR DE FUNDO · 3,0 m</text>
<line x1="661.9" y1="732.0" x2="645.8" y2="640.3" stroke="#5c6c80" stroke-width="2" marker-end="url(#seta)"/>
<text x="591.9" y="712.4" text-anchor="end" font-family="ui-sans-serif,system-ui,Helvetica,Arial,sans-serif" font-size="10" font-weight="400" fill="#5c6c80">garganta sudeste · pré-triagem</text>
<text x="135.6" y="746.0" text-anchor="start" font-family="ui-sans-serif,system-ui,Helvetica,Arial,sans-serif" font-size="10" font-weight="400" fill="#8a919b">gradil permanente do Ring 3 · 39,0 × 35,0 m</text>
</svg>
